<?xml version="1.0" encoding="utf-8" standalone="no"?>
<!DOCTYPE svg PUBLIC "-//W3C//DTD SVG 1.1//EN"
  "http://www.w3.org/Graphics/SVG/1.1/DTD/svg11.dtd">
<svg xmlns:xlink="http://www.w3.org/1999/xlink" width="1005.12pt" height="563.472pt" viewBox="0 0 1005.12 563.472" xmlns="http://www.w3.org/2000/svg" version="1.1">
 <metadata>
  <rdf:RDF xmlns:dc="http://purl.org/dc/elements/1.1/" xmlns:cc="http://creativecommons.org/ns#" xmlns:rdf="http://www.w3.org/1999/02/22-rdf-syntax-ns#">
   <cc:Work>
    <dc:type rdf:resource="http://purl.org/dc/dcmitype/StillImage"/>
    <dc:date>2026-07-20T08:53:13.605870</dc:date>
    <dc:format>image/svg+xml</dc:format>
    <dc:creator>
     <cc:Agent>
      <dc:title>Matplotlib v3.10.3, https://matplotlib.org/</dc:title>
     </cc:Agent>
    </dc:creator>
   </cc:Work>
  </rdf:RDF>
 </metadata>
 <defs>
  <style type="text/css">*{stroke-linejoin: round; stroke-linecap: butt}</style>
 </defs>
 <g id="figure_1">
  <g id="patch_1">
   <path d="M 0 563.472
L 1005.12 563.472
L 1005.12 0
L 0 0
z
" style="fill: #f7f4ed"/>
  </g>
  <g id="axes_1">
   <g id="patch_2">
    <path d="M 145.296 214.96176
L 261.36 214.96176
Q 279.216 214.96176 279.216 205.2792
L 279.216 161.70768
Q 279.216 152.02512 261.36 152.02512
L 145.296 152.02512
Q 127.44 152.02512 127.44 161.70768
L 127.44 205.2792
Q 127.44 214.96176 145.296 214.96176
z
" clip-path="url(#p75fd4a94a5)" style="fill: #ffffff; stroke: #16324f; stroke-width: 1.3; stroke-linejoin: miter"/>
   </g>
   <g id="patch_3">
    <path d="M 332.784 214.96176
L 484.56 214.96176
Q 502.416 214.96176 502.416 205.2792
L 502.416 161.70768
Q 502.416 152.02512 484.56 152.02512
L 332.784 152.02512
Q 314.928 152.02512 314.928 161.70768
L 314.928 205.2792
Q 314.928 214.96176 332.784 214.96176
z
" clip-path="url(#p75fd4a94a5)" style="fill: #ddf2ea; stroke: #1b998b; stroke-width: 1.3; stroke-linejoin: miter"/>
   </g>
   <g id="patch_4">
    <path d="M 261.36 287.58096
L 395.28 287.58096
Q 413.136 287.58096 413.136 277.8984
L 413.136 239.16816
Q 413.136 229.4856 395.28 229.4856
L 261.36 229.4856
Q 243.504 229.4856 243.504 239.16816
L 243.504 277.8984
Q 243.504 287.58096 261.36 287.58096
z
" clip-path="url(#p75fd4a94a5)" style="fill: #fbe3dc; stroke: #d95d39; stroke-width: 1.3; stroke-linejoin: miter"/>
   </g>
   <g id="patch_5">
    <path d="M 457.776 287.58096
L 591.696 287.58096
Q 609.552 287.58096 609.552 277.8984
L 609.552 239.16816
Q 609.552 229.4856 591.696 229.4856
L 457.776 229.4856
Q 439.92 229.4856 439.92 239.16816
L 439.92 277.8984
Q 439.92 287.58096 457.776 287.58096
z
" clip-path="url(#p75fd4a94a5)" style="fill: #fbe3dc; stroke: #d95d39; stroke-width: 1.3; stroke-linejoin: miter"/>
   </g>
   <g id="patch_6">
    <path d="M 654.192 287.58096
L 797.04 287.58096
Q 814.896 287.58096 814.896 277.8984
L 814.896 239.16816
Q 814.896 229.4856 797.04 229.4856
L 654.192 229.4856
Q 636.336 229.4856 636.336 239.16816
L 636.336 277.8984
Q 636.336 287.58096 654.192 287.58096
z
" clip-path="url(#p75fd4a94a5)" style="fill: #fff0cc; stroke: #e9b44c; stroke-width: 1.3; stroke-linejoin: miter"/>
   </g>
   <g id="patch_7">
    <path d="M 841.68 287.58096
L 957.744 287.58096
Q 975.6 287.58096 975.6 277.8984
L 975.6 239.16816
Q 975.6 229.4856 957.744 229.4856
L 841.68 229.4856
Q 823.824 229.4856 823.824 239.16816
L 823.824 277.8984
Q 823.824 287.58096 841.68 287.58096
z
" clip-path="url(#p75fd4a94a5)" style="fill: #ddf2ea; stroke: #1b998b; stroke-width: 1.3; stroke-linejoin: miter"/>
   </g>
   <g id="patch_8">
    <path d="M 261.36 379.56528
L 377.424 379.56528
Q 395.28 379.56528 395.28 369.88272
L 395.28 331.15248
Q 395.28 321.46992 377.424 321.46992
L 261.36 321.46992
Q 243.504 321.46992 243.504 331.15248
L 243.504 369.88272
Q 243.504 379.56528 261.36 379.56528
z
" clip-path="url(#p75fd4a94a5)" style="fill: #ffffff; stroke: #16324f; stroke-width: 1.3; stroke-linejoin: miter"/>
   </g>
   <g id="patch_9">
    <path d="M 439.92 379.56528
L 582.768 379.56528
Q 600.624 379.56528 600.624 369.88272
L 600.624 331.15248
Q 600.624 321.46992 582.768 321.46992
L 439.92 321.46992
Q 422.064 321.46992 422.064 331.15248
L 422.064 369.88272
Q 422.064 379.56528 439.92 379.56528
z
" clip-path="url(#p75fd4a94a5)" style="fill: #ddf2ea; stroke: #1b998b; stroke-width: 1.3; stroke-linejoin: miter"/>
   </g>
   <g id="patch_10">
    <path d="M 645.264 379.56528
L 761.328 379.56528
Q 779.184 379.56528 779.184 369.88272
L 779.184 331.15248
Q 779.184 321.46992 761.328 321.46992
L 645.264 321.46992
Q 627.408 321.46992 627.408 331.15248
L 627.408 369.88272
Q 627.408 379.56528 645.264 379.56528
z
" clip-path="url(#p75fd4a94a5)" style="fill: #fbe3dc; stroke: #d95d39; stroke-width: 1.3; stroke-linejoin: miter"/>
   </g>
   <g id="patch_11">
    <path d="M 823.824 379.56528
L 957.744 379.56528
Q 975.6 379.56528 975.6 369.88272
L 975.6 331.15248
Q 975.6 321.46992 957.744 321.46992
L 823.824 321.46992
Q 805.968 321.46992 805.968 331.15248
L 805.968 369.88272
Q 805.968 379.56528 823.824 379.56528
z
" clip-path="url(#p75fd4a94a5)" style="fill: #fbe3dc; stroke: #d95d39; stroke-width: 1.3; stroke-linejoin: miter"/>
   </g>
   <g id="patch_12">
    <path d="M 332.784 476.39088
L 484.56 476.39088
Q 502.416 476.39088 502.416 466.70832
L 502.416 427.97808
Q 502.416 418.29552 484.56 418.29552
L 332.784 418.29552
Q 314.928 418.29552 314.928 427.97808
L 314.928 466.70832
Q 314.928 476.39088 332.784 476.39088
z
" clip-path="url(#p75fd4a94a5)" style="fill: #ddf2ea; stroke: #1b998b; stroke-width: 1.3; stroke-linejoin: miter"/>
   </g>
   <g id="patch_13">
    <path d="M 600.624 476.39088
L 823.824 476.39088
Q 841.68 476.39088 841.68 466.70832
L 841.68 427.97808
Q 841.68 418.29552 823.824 418.29552
L 600.624 418.29552
Q 582.768 418.29552 582.768 427.97808
L 582.768 466.70832
Q 582.768 476.39088 600.624 476.39088
z
" clip-path="url(#p75fd4a94a5)" style="fill: #ffffff; stroke: #16324f; stroke-width: 1.3; stroke-linejoin: miter"/>
   </g>
   <g id="text_1">
    <text style="font-weight: 700; font-size: 10px; font-family: 'AppleGothic'; fill: #16324f" transform="translate(196.373313 180.989065)">V1</text>
    <text style="font-weight: 700; font-size: 10px; font-family: 'AppleGothic'; fill: #16324f" transform="translate(181.735813 192.118127)">reference</text>
   </g>
   <g id="text_2">
    <text style="font-weight: 700; font-size: 10px; font-family: 'AppleGothic'; fill: #16324f" transform="translate(401.717312 180.989065)">V2</text>
    <text style="font-weight: 700; font-size: 10px; font-family: 'AppleGothic'; fill: #16324f" transform="translate(365.922 192.118127)">ACTIVE BASELINE</text>
   </g>
   <g id="patch_14">
    <path d="M 267.826588 183.49344
Q 297.074547 183.49344 324.645455 183.49344
" style="fill: none; stroke: #16324f; stroke-width: 1.5; stroke-linecap: round"/>
    <path d="M 320.645455 181.49344
L 324.645455 183.49344
L 320.645455 185.49344
z
" style="fill: #16324f; stroke: #16324f; stroke-width: 1.5; stroke-linecap: round"/>
   </g>
   <g id="text_3">
    <text style="font-weight: 700; font-size: 12px; font-family: 'AppleGothic'; text-anchor: start; fill: #16324f" x="149.76" y="256.11264" transform="rotate(-0 149.76 256.11264)">Intermittent</text>
   </g>
   <g id="text_4">
    <text style="font-size: 9.3px; font-family: 'AppleGothic'; fill: #16324f" transform="translate(305.042391 256.204211)">V3c / V5a</text>
    <text style="font-size: 9.3px; font-family: 'AppleGothic'; fill: #16324f" transform="translate(299.489273 266.554239)">not promoted</text>
   </g>
   <g id="text_5">
    <text style="font-size: 9.3px; font-family: 'AppleGothic'; fill: #16324f" transform="translate(496.096359 256.204211)">M0 / Q0-Q3</text>
    <text style="font-size: 9.3px; font-family: 'AppleGothic'; fill: #16324f" transform="translate(511.464609 266.554239)">closed</text>
   </g>
   <g id="text_6">
    <text style="font-size: 9.3px; font-family: 'AppleGothic'; fill: #16324f" transform="translate(716.534695 255.9829)">V5b</text>
    <text style="font-size: 9.3px; font-family: 'AppleGothic'; fill: #16324f" transform="translate(697.277883 266.47766)">design frozen</text>
   </g>
   <g id="patch_15">
    <path d="M 406.791202 208.379759
Q 368.495541 222.223846 331.777038 235.497782
" style="fill: none; stroke: #667085; stroke-width: 1.5; stroke-linecap: round"/>
    <path d="M 336.218724 236.018763
L 331.777038 235.497782
L 334.858834 232.257022
z
" style="fill: #667085; stroke: #667085; stroke-width: 1.5; stroke-linecap: round"/>
   </g>
   <g id="patch_16">
    <path d="M 401.741684 258.53328
Q 426.527478 258.53328 449.636222 258.53328
" style="fill: none; stroke: #d95d39; stroke-width: 1.5; stroke-linecap: round"/>
    <path d="M 445.636222 256.53328
L 449.636222 258.53328
L 445.636222 260.53328
z
" style="fill: #d95d39; stroke: #d95d39; stroke-width: 1.5; stroke-linecap: round"/>
   </g>
   <g id="patch_17">
    <path d="M 598.157684 258.53328
Q 622.943478 258.53328 646.052222 258.53328
" style="fill: none; stroke: #e9b44c; stroke-width: 1.5; stroke-linecap: round"/>
    <path d="M 642.052222 256.53328
L 646.052222 258.53328
L 642.052222 260.53328
z
" style="fill: #e9b44c; stroke: #e9b44c; stroke-width: 1.5; stroke-linecap: round"/>
   </g>
   <g id="text_7">
    <text style="font-weight: 700; font-size: 9.3px; font-family: 'AppleGothic'; text-anchor: middle; fill: #16324f" x="899.712" y="261.379225" transform="rotate(-0 899.712 261.379225)">V2 retained</text>
   </g>
   <g id="patch_18">
    <path d="M 803.504953 258.53328
Q 819.358445 258.53328 833.534887 258.53328
" style="fill: none; stroke: #1b998b; stroke-width: 1.5; stroke-linecap: round"/>
    <path d="M 829.534887 256.53328
L 833.534887 258.53328
L 829.534887 260.53328
z
" style="fill: #1b998b; stroke: #1b998b; stroke-width: 1.5; stroke-linecap: round"/>
   </g>
   <g id="text_8">
    <text style="font-weight: 700; font-size: 12px; font-family: 'AppleGothic'; text-anchor: start; fill: #16324f" x="149.76" y="348.09696" transform="rotate(-0 149.76 348.09696)">Taxi</text>
   </g>
   <g id="text_9">
    <text style="font-size: 9.3px; font-family: 'AppleGothic'; fill: #16324f" transform="translate(310.296891 348.188531)">V3a</text>
    <text style="font-size: 9.3px; font-family: 'AppleGothic'; fill: #16324f" transform="translate(303.106828 358.538559)">ablation</text>
   </g>
   <g id="text_10">
    <text style="font-weight: 700; font-size: 9.3px; font-family: 'AppleGothic'; fill: #16324f" transform="translate(502.262695 348.188531)">V3b</text>
    <text style="font-weight: 700; font-size: 9.3px; font-family: 'AppleGothic'; fill: #16324f" transform="translate(485.160867 358.538559)">PROMOTED</text>
   </g>
   <g id="text_11">
    <text style="font-size: 9.3px; font-family: 'AppleGothic'; fill: #16324f" transform="translate(696.828141 348.188531)">V4</text>
    <text style="font-size: 9.3px; font-family: 'AppleGothic'; fill: #16324f" transform="translate(674.465273 358.538559)">not promoted</text>
   </g>
   <g id="text_12">
    <text style="font-size: 9.3px; font-family: 'AppleGothic'; fill: #16324f" transform="translate(872.547281 348.188531)">V6 / V7</text>
    <text style="font-size: 9.3px; font-family: 'AppleGothic'; fill: #16324f" transform="translate(877.512609 358.538559)">closed</text>
   </g>
   <g id="patch_19">
    <path d="M 407.486795 209.306558
Q 364.032198 268.215571 321.573139 325.77499
" style="fill: none; stroke: #667085; stroke-width: 1.5; stroke-linecap: round"/>
    <path d="M 325.557119 323.743265
L 321.573139 325.77499
L 322.338147 321.368771
z
" style="fill: #667085; stroke: #667085; stroke-width: 1.5; stroke-linecap: round"/>
   </g>
   <g id="patch_20">
    <path d="M 383.885684 350.5176
Q 408.671478 350.5176 431.780222 350.5176
" style="fill: none; stroke: #1b998b; stroke-width: 1.5; stroke-linecap: round"/>
    <path d="M 427.780222 348.5176
L 431.780222 350.5176
L 427.780222 352.5176
z
" style="fill: #1b998b; stroke: #1b998b; stroke-width: 1.5; stroke-linecap: round"/>
   </g>
   <g id="patch_21">
    <path d="M 589.229684 350.5176
Q 614.015478 350.5176 637.124222 350.5176
" style="fill: none; stroke: #d95d39; stroke-width: 1.5; stroke-linecap: round"/>
    <path d="M 633.124222 348.5176
L 637.124222 350.5176
L 633.124222 352.5176
z
" style="fill: #d95d39; stroke: #d95d39; stroke-width: 1.5; stroke-linecap: round"/>
   </g>
   <g id="patch_22">
    <path d="M 767.789684 350.5176
Q 792.575478 350.5176 815.684222 350.5176
" style="fill: none; stroke: #d95d39; stroke-width: 1.5; stroke-linecap: round"/>
    <path d="M 811.684222 348.5176
L 815.684222 350.5176
L 811.684222 352.5176
z
" style="fill: #d95d39; stroke: #d95d39; stroke-width: 1.5; stroke-linecap: round"/>
   </g>
   <g id="text_13">
    <text style="font-weight: 700; font-size: 12px; font-family: 'AppleGothic'; text-anchor: start; fill: #16324f" x="149.76" y="440.08128" transform="rotate(-0 149.76 440.08128)">Instacart</text>
   </g>
   <g id="text_14">
    <text style="font-weight: 700; font-size: 9.5px; font-family: 'AppleGothic'; fill: #16324f" transform="translate(402.065047 444.964044)">V2</text>
    <text style="font-weight: 700; font-size: 9.5px; font-family: 'AppleGothic'; fill: #16324f" transform="translate(391.499266 455.536653)">retained</text>
   </g>
   <g id="text_15">
    <text style="font-size: 9.2px; font-family: 'AppleGothic'; fill: #16324f" transform="translate(667.101594 444.891831)">Later e1 smoke tests</text>
    <text style="font-size: 9.2px; font-family: 'AppleGothic'; fill: #16324f" transform="translate(660.686031 455.130569)">integration evidence only</text>
   </g>
   <g id="patch_23">
    <path d="M 408.672 209.69771
Q 408.672 316.627919 408.672 421.881078
" style="fill: none; stroke: #667085; stroke-width: 1.5; stroke-linecap: round"/>
    <path d="M 410.672 417.881078
L 408.672 421.881078
L 406.672 417.881078
z
" style="fill: #667085; stroke: #667085; stroke-width: 1.5; stroke-linecap: round"/>
   </g>
   <g id="patch_24">
    <path d="M 491.021684 447.3432
Q 542.591373 447.3432 592.484012 447.3432
" style="fill: none; stroke: #667085; stroke-width: 1.5; stroke-linecap: round"/>
    <path d="M 588.484012 445.3432
L 592.484012 447.3432
L 588.484012 449.3432
z
" style="fill: #667085; stroke: #667085; stroke-width: 1.5; stroke-linecap: round"/>
   </g>
   <g id="text_16">
    <text style="font-weight: 700; font-size: 10.5px; font-family: 'AppleGothic'; text-anchor: middle; fill: #16324f" x="551.52" y="527.22432" transform="rotate(-0 551.52 527.22432)">결론: 공통 기준은 V2, Taxi의 dataset-specific incumbent는 V3b다. V5b는 아직 구현 또는 성능 근거가 없다.</text>
   </g>
  </g>
  <g id="text_17">
   <text style="font-weight: 700; font-size: 17px; font-family: 'AppleGothic'; text-anchor: start; fill: #16324f" x="7.2" y="20.529062" transform="rotate(-0 7.2 20.529062)">F6. Gate를 통과한 모델만 데이터셋별 incumbent로 유지했다</text>
  </g>
  <g id="text_18">
   <text style="font-size: 10.5px; font-family: 'AppleGothic'; text-anchor: start; fill: #667085" x="7.2" y="36.72" transform="rotate(-0 7.2 36.72)">초록은 현재 비교 기준, 주황은 설계만 동결, 붉은색은 미승격 또는 종료된 가설이다.</text>
  </g>
 </g>
 <defs>
  <clipPath id="p75fd4a94a5">
   <rect x="105.12" y="72.144" width="892.8" height="484.128"/>
  </clipPath>
 </defs>
</svg>
