<?xml version="1.0" encoding="utf-8" standalone="no"?>
<!DOCTYPE svg PUBLIC "-//W3C//DTD SVG 1.1//EN"
  "http://www.w3.org/Graphics/SVG/1.1/DTD/svg11.dtd">
<svg xmlns:xlink="http://www.w3.org/1999/xlink" width="1008pt" height="792pt" viewBox="0 0 1008 792" xmlns="http://www.w3.org/2000/svg" version="1.1">
 <metadata>
  <rdf:RDF xmlns:dc="http://purl.org/dc/elements/1.1/" xmlns:cc="http://creativecommons.org/ns#" xmlns:rdf="http://www.w3.org/1999/02/22-rdf-syntax-ns#">
   <cc:Work>
    <dc:type rdf:resource="http://purl.org/dc/dcmitype/StillImage"/>
    <dc:date>2026-09-30T09:56:24.028717</dc:date>
    <dc:format>image/svg+xml</dc:format>
    <dc:creator>
     <cc:Agent>
      <dc:title>Matplotlib v3.10.3, https://matplotlib.org/</dc:title>
     </cc:Agent>
    </dc:creator>
   </cc:Work>
  </rdf:RDF>
 </metadata>
 <defs>
  <style type="text/css">*{stroke-linejoin: round; stroke-linecap: butt}</style>
 </defs>
 <g id="figure_1">
  <g id="patch_1">
   <path d="M 0 792 
L 1008 792 
L 1008 0 
L 0 0 
z
" style="fill: #f8fafc"/>
  </g>
  <g id="axes_1">
   <g id="patch_2">
    <path d="M 455.616 135.910266 
Q 455.616 147.353903 455.616 157.232294 
" clip-path="url(#p7f0e8ef514)" style="fill: none; stroke: #425b75; stroke-width: 1.4; stroke-linecap: round"/>
    <path d="M 458.416 151.632294 
L 455.616 157.232294 
L 452.816 151.632294 
z
" clip-path="url(#p7f0e8ef514)" style="fill: #425b75; stroke: #425b75; stroke-width: 1.4; stroke-linecap: round"/>
   </g>
   <g id="patch_3">
    <path d="M 455.616 211.969402 
Q 455.616 235.319932 455.616 257.105215 
" clip-path="url(#p7f0e8ef514)" style="fill: none; stroke: #425b75; stroke-width: 1.4; stroke-linecap: round"/>
    <path d="M 458.416 251.505215 
L 455.616 257.105215 
L 452.816 251.505215 
z
" clip-path="url(#p7f0e8ef514)" style="fill: #425b75; stroke: #425b75; stroke-width: 1.4; stroke-linecap: round"/>
   </g>
   <g id="patch_4">
    <path d="M 455.616 310.304872 
Q 455.616 328.662211 455.616 345.454302 
" clip-path="url(#p7f0e8ef514)" style="fill: none; stroke: #425b75; stroke-width: 1.4; stroke-linecap: round"/>
    <path d="M 458.416 339.854302 
L 455.616 345.454302 
L 452.816 339.854302 
z
" clip-path="url(#p7f0e8ef514)" style="fill: #425b75; stroke: #425b75; stroke-width: 1.4; stroke-linecap: round"/>
   </g>
   <g id="patch_5">
    <path d="M 455.616 400.18989 
Q 455.616 417.77737 455.616 433.799602 
" clip-path="url(#p7f0e8ef514)" style="fill: none; stroke: #425b75; stroke-width: 1.4; stroke-linecap: round"/>
    <path d="M 458.416 428.199602 
L 455.616 433.799602 
L 452.816 428.199602 
z
" clip-path="url(#p7f0e8ef514)" style="fill: #425b75; stroke: #425b75; stroke-width: 1.4; stroke-linecap: round"/>
   </g>
   <g id="patch_6">
    <path d="M 455.616 488.532895 
Q 455.616 501.896728 455.616 513.695314 
" clip-path="url(#p7f0e8ef514)" style="fill: none; stroke: #425b75; stroke-width: 1.4; stroke-linecap: round"/>
    <path d="M 458.416 508.095314 
L 455.616 513.695314 
L 452.816 508.095314 
z
" clip-path="url(#p7f0e8ef514)" style="fill: #425b75; stroke: #425b75; stroke-width: 1.4; stroke-linecap: round"/>
   </g>
   <g id="line2d_1">
    <path d="M 636.57216 184.6152 
L 673.344 184.6152 
L 673.344 164.64096 
L 828.1728 164.64096 
" clip-path="url(#p7f0e8ef514)" style="fill: none; stroke: #425b75; stroke-width: 1.4; stroke-linecap: square"/>
   </g>
   <g id="patch_7">
    <path d="M 828.1728 166.638271 
Q 828.1728 173.473818 828.1728 178.744118 
" clip-path="url(#p7f0e8ef514)" style="fill: none; stroke: #425b75; stroke-width: 1.4; stroke-linecap: round"/>
    <path d="M 830.9728 173.144118 
L 828.1728 178.744118 
L 825.3728 173.144118 
z
" clip-path="url(#p7f0e8ef514)" style="fill: #425b75; stroke: #425b75; stroke-width: 1.4; stroke-linecap: round"/>
   </g>
   <g id="patch_8">
    <path d="M 705.214125 281.492777 
Q 668.507417 282.949848 633.364725 284.344835 
" clip-path="url(#p7f0e8ef514)" style="fill: none; stroke: #425b75; stroke-width: 1.4; stroke-linecap: round"/>
    <path d="M 639.071377 286.920515 
L 633.364725 284.344835 
L 638.84926 281.324922 
z
" clip-path="url(#p7f0e8ef514)" style="fill: #425b75; stroke: #425b75; stroke-width: 1.4; stroke-linecap: round"/>
   </g>
   <g id="patch_9">
    <path d="M 227.092911 212.136188 
Q 253.372723 198.826706 278.256159 186.224424 
" clip-path="url(#p7f0e8ef514)" style="fill: none; stroke: #425b75; stroke-width: 1.4; stroke-linecap: round"/>
    <path d="M 271.995252 186.25666 
L 278.256159 186.224424 
L 274.525404 191.252491 
z
" clip-path="url(#p7f0e8ef514)" style="fill: #425b75; stroke: #425b75; stroke-width: 1.4; stroke-linecap: round"/>
   </g>
   <g id="patch_10">
    <path d="M 157.09146 260.50333 
Q 216.114849 315.98391 273.997741 370.392451 
" clip-path="url(#p7f0e8ef514)" style="fill: none; stroke: #425b75; stroke-width: 1.4; stroke-linecap: round"/>
    <path d="M 271.8351 364.516825 
L 273.997741 370.392451 
L 267.999656 368.597188 
z
" clip-path="url(#p7f0e8ef514)" style="fill: #425b75; stroke: #425b75; stroke-width: 1.4; stroke-linecap: round"/>
   </g>
   <g id="patch_11">
    <path d="M 227.30843 461.1816 
Q 250.95158 461.1816 273.029482 461.1816 
" clip-path="url(#p7f0e8ef514)" style="fill: none; stroke: #425b75; stroke-width: 1.4; stroke-linecap: round"/>
    <path d="M 267.429482 458.3816 
L 273.029482 461.1816 
L 267.429482 463.9816 
z
" clip-path="url(#p7f0e8ef514)" style="fill: #425b75; stroke: #425b75; stroke-width: 1.4; stroke-linecap: round"/>
   </g>
   <g id="patch_12">
    <path d="M 395.747445 564.986865 
Q 346.751146 588.325727 299.167967 610.991464 
" clip-path="url(#p7f0e8ef514)" style="fill: none; stroke: #425b75; stroke-width: 1.4; stroke-linecap: round"/>
    <path d="M 305.427815 611.111086 
L 299.167967 610.991464 
L 303.019573 606.05536 
z
" clip-path="url(#p7f0e8ef514)" style="fill: #425b75; stroke: #425b75; stroke-width: 1.4; stroke-linecap: round"/>
   </g>
   <g id="patch_13">
    <path d="M 515.565176 564.777128 
Q 583.833634 588.325332 650.622398 611.363137 
" clip-path="url(#p7f0e8ef514)" style="fill: none; stroke: #425b75; stroke-width: 1.4; stroke-linecap: round"/>
    <path d="M 646.241514 606.890123 
L 650.622398 611.363137 
L 644.415457 612.184036 
z
" clip-path="url(#p7f0e8ef514)" style="fill: #425b75; stroke: #425b75; stroke-width: 1.4; stroke-linecap: round"/>
   </g>
   <g id="patch_14">
    <path d="M 284.33664 139.28904 
L 626.89536 139.28904 
Q 636.57216 139.28904 636.57216 131.60664 
L 636.57216 87.04872 
Q 636.57216 79.36632 626.89536 79.36632 
L 284.33664 79.36632 
Q 274.65984 79.36632 274.65984 87.04872 
L 274.65984 131.60664 
Q 274.65984 139.28904 284.33664 139.28904 
z
" clip-path="url(#p7f0e8ef514)" style="fill: #e8eff9; stroke: #446388; stroke-width: 1.2; stroke-linejoin: miter"/>
   </g>
   <g id="patch_15">
    <path d="M 284.33664 215.3448 
L 626.89536 215.3448 
Q 636.57216 215.3448 636.57216 207.6624 
L 636.57216 163.10448 
Q 636.57216 155.42208 626.89536 155.42208 
L 284.33664 155.42208 
Q 274.65984 155.42208 274.65984 163.10448 
L 274.65984 207.6624 
Q 274.65984 215.3448 284.33664 215.3448 
z
" clip-path="url(#p7f0e8ef514)" style="fill: #e8eff9; stroke: #446388; stroke-width: 1.2; stroke-linejoin: miter"/>
   </g>
   <g id="patch_16">
    <path d="M 284.33664 313.67952 
L 626.89536 313.67952 
Q 636.57216 313.67952 636.57216 305.99712 
L 636.57216 262.97568 
Q 636.57216 255.29328 626.89536 255.29328 
L 284.33664 255.29328 
Q 274.65984 255.29328 274.65984 262.97568 
L 274.65984 305.99712 
Q 274.65984 313.67952 284.33664 313.67952 
z
" clip-path="url(#p7f0e8ef514)" style="fill: #e8eff9; stroke: #446388; stroke-width: 1.2; stroke-linejoin: miter"/>
   </g>
   <g id="patch_17">
    <path d="M 710.11584 309.07008 
L 946.22976 309.07008 
Q 955.90656 309.07008 955.90656 301.38768 
L 955.90656 190.76112 
Q 955.90656 183.07872 946.22976 183.07872 
L 710.11584 183.07872 
Q 700.43904 183.07872 700.43904 190.76112 
L 700.43904 301.38768 
Q 700.43904 309.07008 710.11584 309.07008 
z
" clip-path="url(#p7f0e8ef514)" style="fill: #e1f2ed; stroke: #42816e; stroke-width: 1.2; stroke-linejoin: miter"/>
   </g>
   <g id="patch_18">
    <path d="M 284.33664 403.5636 
L 626.89536 403.5636 
Q 636.57216 403.5636 636.57216 395.8812 
L 636.57216 351.32328 
Q 636.57216 343.64088 626.89536 343.64088 
L 284.33664 343.64088 
Q 274.65984 343.64088 274.65984 351.32328 
L 274.65984 395.8812 
Q 274.65984 403.5636 284.33664 403.5636 
z
" clip-path="url(#p7f0e8ef514)" style="fill: #e8eff9; stroke: #446388; stroke-width: 1.2; stroke-linejoin: miter"/>
   </g>
   <g id="patch_19">
    <path d="M 284.33664 491.9112 
L 626.89536 491.9112 
Q 636.57216 491.9112 636.57216 484.2288 
L 636.57216 439.67088 
Q 636.57216 431.98848 626.89536 431.98848 
L 284.33664 431.98848 
Q 274.65984 431.98848 274.65984 439.67088 
L 274.65984 484.2288 
Q 274.65984 491.9112 284.33664 491.9112 
z
" clip-path="url(#p7f0e8ef514)" style="fill: #e8eff9; stroke: #446388; stroke-width: 1.2; stroke-linejoin: miter"/>
   </g>
   <g id="patch_20">
    <path d="M 284.33664 569.50344 
L 626.89536 569.50344 
Q 636.57216 569.50344 636.57216 561.82104 
L 636.57216 519.56784 
Q 636.57216 511.88544 626.89536 511.88544 
L 284.33664 511.88544 
Q 274.65984 511.88544 274.65984 519.56784 
L 274.65984 561.82104 
Q 274.65984 569.50344 284.33664 569.50344 
z
" clip-path="url(#p7f0e8ef514)" style="fill: #e8eff9; stroke: #446388; stroke-width: 1.2; stroke-linejoin: miter"/>
   </g>
   <g id="patch_21">
    <path d="M 63.7056 259.13448 
L 222.40512 259.13448 
Q 232.08192 259.13448 232.08192 251.45208 
L 232.08192 175.39632 
Q 232.08192 167.71392 222.40512 167.71392 
L 63.7056 167.71392 
Q 54.0288 167.71392 54.0288 175.39632 
L 54.0288 251.45208 
Q 54.0288 259.13448 63.7056 259.13448 
z
" clip-path="url(#p7f0e8ef514)" style="fill: #e8eff9; stroke: #446388; stroke-width: 1.2; stroke-linejoin: miter"/>
   </g>
   <g id="patch_22">
    <path d="M 63.7056 497.28888 
L 222.40512 497.28888 
Q 232.08192 497.28888 232.08192 489.60648 
L 232.08192 432.75672 
Q 232.08192 425.07432 222.40512 425.07432 
L 63.7056 425.07432 
Q 54.0288 425.07432 54.0288 432.75672 
L 54.0288 489.60648 
Q 54.0288 497.28888 63.7056 497.28888 
z
" clip-path="url(#p7f0e8ef514)" style="fill: #e8eff9; stroke: #446388; stroke-width: 1.2; stroke-linejoin: miter"/>
   </g>
   <g id="patch_23">
    <path d="M 168.21504 679.36176 
L 423.68256 679.36176 
Q 433.35936 679.36176 433.35936 671.67936 
L 433.35936 617.90256 
Q 433.35936 610.22016 423.68256 610.22016 
L 168.21504 610.22016 
Q 158.53824 610.22016 158.53824 617.90256 
L 158.53824 671.67936 
Q 158.53824 679.36176 168.21504 679.36176 
z
" clip-path="url(#p7f0e8ef514)" style="fill: #fff1d9; stroke: #b78940; stroke-width: 1.2; stroke-linejoin: miter"/>
   </g>
   <g id="patch_24">
    <path d="M 497.22624 679.36176 
L 810.75456 679.36176 
Q 820.43136 679.36176 820.43136 671.67936 
L 820.43136 617.90256 
Q 820.43136 610.22016 810.75456 610.22016 
L 497.22624 610.22016 
Q 487.54944 610.22016 487.54944 617.90256 
L 487.54944 671.67936 
Q 487.54944 679.36176 497.22624 679.36176 
z
" clip-path="url(#p7f0e8ef514)" style="fill: #fff1d9; stroke: #b78940; stroke-width: 1.2; stroke-linejoin: miter"/>
   </g>
   <g id="text_1">
    <text style="font-weight: 700; font-size: 24px; font-family: 'DejaVu Sans'; text-anchor: start; fill: #14283f" x="54.0288" y="31.73544" transform="rotate(-0 54.0288 31.73544)">TitanTPP</text>
   </g>
   <g id="text_2">
    <text style="font-size: 13px; font-family: 'DejaVu Sans'; text-anchor: start; fill: #425b75" x="54.0288" y="56.31912" transform="rotate(-0 54.0288 56.31912)">Observed-event encoding with a bottleneck history correction</text>
   </g>
   <g id="text_3">
    <text style="font-weight: 700; font-size: 11px; font-family: 'DejaVu Sans'; text-anchor: middle; fill: #14283f" x="455.616" y="104.94492" transform="rotate(-0 455.616 104.94492)">Observed gaps and quantities</text>
   </g>
   <g id="text_4">
    <text style="font-size: 9.5px; font-family: 'DejaVu Sans'; text-anchor: middle; fill: #314b66" x="455.616" y="122.274232" transform="rotate(-0 455.616 122.274232)">log1p → projection + learned position</text>
   </g>
   <g id="text_5">
    <text style="font-weight: 700; font-size: 11px; font-family: 'DejaVu Sans'; text-anchor: middle; fill: #14283f" x="455.616" y="181.043649" transform="rotate(-0 455.616 181.043649)">Causal encoder 1</text>
   </g>
   <g id="text_6">
    <text style="font-size: 9.5px; font-family: 'DejaVu Sans'; text-anchor: middle; fill: #314b66" x="455.616" y="198.329992" transform="rotate(-0 455.616 198.329992)">64 hidden units · 4 attention heads</text>
   </g>
   <g id="text_7">
    <text style="font-weight: 700; font-size: 11px; font-family: 'DejaVu Sans'; text-anchor: middle; fill: #14283f" x="455.616" y="280.334112" transform="rotate(-0 455.616 280.334112)">Add history residual</text>
   </g>
   <g id="text_8">
    <text style="font-size: 9.5px; font-family: 'DejaVu Sans'; text-anchor: middle; fill: #314b66" x="455.616" y="297.110291" transform="rotate(-0 455.616 297.110291)">current state + correction</text>
   </g>
   <g id="text_9">
    <text style="font-weight: 700; font-size: 11px; font-family: 'DejaVu Sans'; text-anchor: middle; fill: #14283f" x="828.1728" y="231.781344" transform="rotate(-0 828.1728 231.781344)">History correction</text>
   </g>
   <g id="text_10">
    <text style="font-size: 9.5px; font-family: 'DejaVu Sans'; fill: #314b66" transform="translate(747.234284 261.174667)">Current + immediate predecessor</text>
    <text style="font-size: 9.5px; font-family: 'DejaVu Sans'; fill: #314b66" transform="translate(766.725612 272.895366)">8 × (128 → 4 → 64), GELU</text>
    <text style="font-size: 9.5px; font-family: 'DejaVu Sans'; fill: #314b66" transform="translate(763.37612 284.616065)">Availability mask · fixed ÷8</text>
   </g>
   <g id="text_11">
    <text style="font-weight: 700; font-size: 11px; font-family: 'DejaVu Sans'; text-anchor: middle; fill: #14283f" x="455.616" y="369.262448" transform="rotate(-0 455.616 369.262448)">Causal encoder 2</text>
   </g>
   <g id="text_12">
    <text style="font-size: 9.5px; font-family: 'DejaVu Sans'; text-anchor: middle; fill: #314b66" x="455.616" y="386.548792" transform="rotate(-0 455.616 386.548792)">pre-LN attention + feed-forward residuals</text>
   </g>
   <g id="text_13">
    <text style="font-weight: 700; font-size: 11px; font-family: 'DejaVu Sans'; text-anchor: middle; fill: #14283f" x="455.616" y="457.56708" transform="rotate(-0 455.616 457.56708)">Static prototype retrieval</text>
   </g>
   <g id="text_14">
    <text style="font-size: 9.5px; font-family: 'DejaVu Sans'; text-anchor: middle; fill: #314b66" x="455.616" y="474.896392" transform="rotate(-0 455.616 474.896392)">cosine top-4 → mean raw vectors → residual</text>
   </g>
   <g id="text_15">
    <text style="font-weight: 700; font-size: 11px; font-family: 'DejaVu Sans'; text-anchor: middle; fill: #14283f" x="455.616" y="536.700356" transform="rotate(-0 455.616 536.700356)">Last observed state</text>
   </g>
   <g id="text_16">
    <text style="font-size: 9.5px; font-family: 'DejaVu Sans'; text-anchor: middle; fill: #314b66" x="455.616" y="553.157001" transform="rotate(-0 455.616 553.157001)">shared by time and quantity heads</text>
   </g>
   <g id="text_17">
    <text style="font-weight: 700; font-size: 10px; font-family: 'DejaVu Sans'; text-anchor: middle; fill: #14283f" x="143.05536" y="204.083795" transform="rotate(-0 143.05536 204.083795)">Persistent vectors</text>
   </g>
   <g id="text_18">
    <text style="font-size: 9.5px; font-family: 'DejaVu Sans'; fill: #314b66" transform="translate(89.50579 227.124949)">16 per block, separate</text>
    <text style="font-size: 9.5px; font-family: 'DejaVu Sans'; fill: #314b66" transform="translate(101.432001 238.845648)">fixed at inference</text>
   </g>
   <g id="text_19">
    <text style="font-weight: 700; font-size: 10px; font-family: 'DejaVu Sans'; text-anchor: middle; fill: #14283f" x="143.05536" y="454.722095" transform="rotate(-0 143.05536 454.722095)">Static bank</text>
   </g>
   <g id="text_20">
    <text style="font-size: 9.5px; font-family: 'DejaVu Sans'; text-anchor: middle; fill: #314b66" x="143.05536" y="476.709438" transform="rotate(-0 143.05536 476.709438)">64 learned prototypes</text>
   </g>
   <g id="text_21">
    <text style="font-weight: 700; font-size: 11px; font-family: 'DejaVu Sans'; text-anchor: middle; fill: #14283f" x="295.9488" y="639.025368" transform="rotate(-0 295.9488 639.025368)">Quantity head</text>
   </g>
   <g id="text_22">
    <text style="font-size: 9.5px; font-family: 'DejaVu Sans'; fill: #314b66" transform="translate(253.981808 653.813127)">softplus → expm1</text>
    <text style="font-size: 9.5px; font-family: 'DejaVu Sans'; fill: #314b66" transform="translate(249.732784 665.533826)">log1p quantity MSE</text>
   </g>
   <g id="text_23">
    <text style="font-weight: 700; font-size: 11px; font-family: 'DejaVu Sans'; text-anchor: middle; fill: #14283f" x="653.9904" y="639.068336" transform="rotate(-0 653.9904 639.068336)">Duration head</text>
   </g>
   <g id="text_24">
    <text style="font-size: 9.5px; font-family: 'DejaVu Sans'; fill: #314b66" transform="translate(602.403173 653.813127)">conditional lognormal</text>
    <text style="font-size: 9.5px; font-family: 'DejaVu Sans'; fill: #314b66" transform="translate(595.252197 665.533826)">recorded integer-bin NLL</text>
   </g>
   <g id="text_25">
    <text style="font-size: 10px; font-family: 'DejaVu Sans'; fill: #28624f" transform="translate(716.8896 330.496837)">All branches read lag one.</text>
    <text style="font-size: 10px; font-family: 'DejaVu Sans'; fill: #28624f" transform="translate(716.8896 343.594259)">Thresholds govern availability,</text>
    <text style="font-size: 10px; font-family: 'DejaVu Sans'; fill: #28624f" transform="translate(716.8896 356.691681)">not different retrieval lags.</text>
   </g>
   <g id="text_26">
    <text style="font-size: 10px; font-family: 'DejaVu Sans'; fill: #425b75" transform="translate(707.2128 405.042189)">No online associative update</text>
    <text style="font-size: 10px; font-family: 'DejaVu Sans'; fill: #425b75" transform="translate(707.2128 418.899454)">No learned Gate</text>
    <text style="font-size: 10px; font-family: 'DejaVu Sans'; fill: #425b75" transform="translate(707.2128 432.75672)">Output projections initialize to zero</text>
   </g>
   <g id="text_27">
    <text style="font-size: 11px; font-family: 'DejaVu Sans'; text-anchor: middle; fill: #14283f" x="504" y="716.23728" transform="rotate(-0 504 716.23728)">The next-event target is withheld from the encoder and enters the loss only.</text>
   </g>
   <g id="text_28">
    <text style="font-size: 10px; font-family: 'DejaVu Sans'; text-anchor: middle; fill: #425b75" x="504" y="745.4304" transform="rotate(-0 504 745.4304)">Persistent and static memory remain; inference does not update their parameters.</text>
   </g>
  </g>
 </g>
 <defs>
  <clipPath id="p7f0e8ef514">
   <rect x="20.16" y="7.92" width="967.68" height="768.24"/>
  </clipPath>
 </defs>
</svg>
